<?xml version="1.0" encoding="utf-8"?>
<!-- Generator: Adobe Illustrator 24.0.1, SVG Export Plug-In . SVG Version: 6.00 Build 0)  -->
<svg version="1.1" id="Capa_1" xmlns="http://www.w3.org/2000/svg" xmlns:xlink="http://www.w3.org/1999/xlink" x="0px" y="0px"
	 viewBox="0 0 768 768" style="enable-background:new 0 0 768 768;" xml:space="preserve">
<style type="text/css">
	.st0{fill:#00A097;}
	.st1{fill:#BCE3E5;}
	.st2{fill:#008AAB;}
	.st3{fill:#80CECE;}
	.st4{fill:#00A59B;}
	.st5{fill:#008BAF;}
</style>
<path class="st0" d="M406.8,734.4l-18.2,17.4c-0.4,0.4-1,0.3-1.3,0l-17.7-17.3l-15.6-16c-0.4-0.4-0.6-1-0.6-1.6
	c11.3-234.8,22.8-469.5,34.5-704.3c0-0.1,0-0.3,0.1-0.4c0.2-0.4,0.3-0.2,0.4,0.5c12.2,233.2,24.5,466.6,36.8,700.2
	c0.1,1.7-0.6,3.4-1.8,4.7L406.8,734.4z"/>
<path class="st1" d="M260.8,74c0.5-2.4,0.8-2.2,0.8,0.4c0,0.6,0.1,1.3,0.2,1.9c15.9,78.2,33.4,155.7,52.6,232.6
	c8.1,32.6,16.8,63.2,26.1,91.9c2.9,8.8,6.6,17.9,11.1,27.2c1.2,2.5,1.8,5.1,1.8,7.8c0,45.5,0,90.7-0.1,135.6c0,1.9-0.3,1.9-0.8,0.1
	c-23.9-82-43.3-165-58.1-249.1c-14.2-80.2-25.4-162.3-33.7-246.3C260.6,75.5,260.6,74.7,260.8,74z"/>
<path class="st1" d="M512.3,101.7c2-9.6,4.1-19.1,6.2-28.6c0.2-0.8,0.3-0.8,0.5-0.1c0,0.2,0,0.4,0,0.7
	c-8.7,89-22.3,183.6-40.9,283.8c-13.4,72.4-30.5,143.7-51.2,214.1c-0.4,1.2-0.6,1.2-0.6-0.1c-0.5-43.1-0.7-86.3-0.5-129.4
	c0-0.1-0.1-1.5-0.2-4.2c-0.2-3.6,0.5-6.9,2.1-10c1.9-3.7,2.9-5.6,2.9-5.7c7.1-17.3,13.1-34.9,18.2-52.9
	c12-42.6,22.9-85.5,32.9-128.6C492.3,194.5,502.5,148.2,512.3,101.7z"/>
<path class="st2" d="M505,478.5c-21.2,67.5-47,133.3-77.5,197.2c-1.3,2.6-1.8,2.5-1.7-0.4c1.2-26.3,2.6-52.8,4.4-79.3
	c0.5-7.2,1.5-14.1,3-20.9c2.1-9.3,3.8-16.2,5.1-20.6c7.8-27.1,15.2-54.3,22.3-81.5c1.3-4.9,3.4-10.3,6.3-16.1c2.9-5.8,4.3-8.8,4.4-9
	c45.3-96.6,82.3-196.3,111.1-299.1c0.6-2,1-2.4,1.2-1.2c0.1,0.3,0.1,0.6,0,1C565.1,260.3,538.9,370.3,505,478.5z"/>
<path class="st2" d="M274.5,479c-33.9-107.9-60-217.7-78.3-329.3c-0.1-0.5-0.1-1,0.1-1.5c0.5-1.5,0.9-1,1.1,1.6
	c0.1,0.7,0.2,1.3,0.3,1.8c29.8,105.6,68,207.2,114.7,304.9c3.5,7.4,6.2,14.5,7.9,21.3c6.8,26.7,12,46.1,15.5,58.2
	c4,13.6,7.3,26.2,10,37.8c1.9,8.5,3.2,17.8,3.8,27.9c1.5,24.8,2.7,49.4,3.7,74.1c0.1,2.1-0.3,2.2-1.2,0.3
	C321.6,612.3,295.7,546.6,274.5,479z"/>
<path class="st3" d="M309.4,589.8c9.4,23.4,21.2,54.6,35.3,93.7c0.2,0.5,0.2,0.8,0.1,1c-0.2,0.5-0.5,0.5-1-0.2
	c-48.2-67-91.3-137-129.4-210.2c-42.9-82.3-80.1-167.1-111.6-254.4c-0.3-0.9-0.2-0.8,0.4,0.2c52.1,85.3,104.5,170.4,157,255.4
	c4.1,6.7,7.7,13.7,10.7,20.9C284,527.4,296.8,558.5,309.4,589.8z"/>
<path class="st3" d="M562.5,478.4c-37.9,72.3-80.2,140.9-126.8,205.6c-0.2,0.3-0.5,0.5-0.8,0.5c-0.3,0-0.4-0.3-0.2-0.8
	c12.2-35,25.2-69.7,39.2-104c11.5-28.3,23.2-56.6,34.9-84.8c3.2-7.7,6.3-14,9.4-19c52.8-85.1,105.4-170.4,157.8-255.8
	c0.5-0.8,0.6-0.7,0.3,0.1C644.6,308,606.7,394,562.5,478.4z"/>
<path class="st4" d="M335.1,697.9c-35.1-35.4-67.5-72-97-109.8c-69.2-88.5-130.4-182.1-183.6-281c0,0-0.2-0.2-0.4-0.5
	c-0.2-0.2-0.2-0.4-0.1-0.7c0.1-0.2,0.3-0.3,0.6-0.1c0.1,0,0.1,0.1,0.2,0.1c97.5,118.9,156.1,190.8,175.9,215.9
	c5.9,7.6,15.2,22.7,27.9,45.3c24.4,43.7,50.2,87.2,77.2,130.2C336.8,699.3,336.6,699.5,335.1,697.9z"/>
<path class="st4" d="M722.9,306.3c0.6-1.2,0.8-1.2,0.8,0c0,0.2,0,0.4-0.1,0.6c-47.5,87.8-100.6,171-159.3,249.5
	c-36.9,49.4-77.5,96.9-122,142.5c-0.3,0.3-0.6,0.4-0.8,0.4c-0.4,0-0.5-0.3-0.2-0.7c26.2-41.4,51.1-83.5,74.8-126.4
	c7.5-13.5,15.5-26.6,24-39.4c5.7-8.5,13-18.3,22.1-29.5c53.2-65.7,106.8-131.2,160.5-196.5C722.7,306.7,722.8,306.5,722.9,306.3z"/>
<path class="st5" d="M184.9,616.8c-34.9-35.4-64-71.3-87.3-107.7c-0.1-0.1-0.3-0.3-0.6-0.7c-0.2-0.2-0.3-0.5-0.3-0.8
	c0.1-0.6,0.3-0.6,0.8-0.1c39.3,39.4,80.7,76.5,124.1,111.3c19.2,15.4,39.8,30.1,61.8,44.2c0.8,0.5,1.4,1.2,1.7,2.1l21.7,51.8
	c0.6,1.4,0.3,1.7-1,0.8C262,687.8,221.7,654.2,184.9,616.8z"/>
<path class="st5" d="M491.4,665.1c0.4-0.9,1-1.6,1.9-2.2c26-16.7,50.5-34.5,73.4-53.4c38.9-32.1,76.3-66,112.1-101.5
	c0.4-0.4,0.8-0.5,1.1-0.4c0.2,0.2,0.1,0.5-0.3,1.1c-26.1,39.8-56,76.5-89.7,110.1c-36.7,36.6-76.5,69.7-119.3,99.3
	c-1.3,0.9-1.7,0.6-1.1-0.8L491.4,665.1z"/>
</svg>
