<?xml version="1.0" encoding="utf-8"?>
<!-- Generator: Adobe Illustrator 24.0.1, SVG Export Plug-In . SVG Version: 6.00 Build 0)  -->
<svg version="1.1" id="Capa_1" xmlns="http://www.w3.org/2000/svg" xmlns:xlink="http://www.w3.org/1999/xlink" x="0px" y="0px"
	 viewBox="0 0 600 600" style="enable-background:new 0 0 600 600;" xml:space="preserve">
<style type="text/css">
	.st0{fill:#00A097;}
	.st1{fill:#BCE3E5;}
	.st2{fill:#008AAB;}
	.st3{fill:#80CECE;}
	.st4{fill:#00A59B;}
	.st5{fill:#008BAF;}
	.st6{fill:#595959;stroke:#FFFFFF;stroke-width:2;stroke-miterlimit:10;}
	.st7{fill:#5E5E5E;}
</style>
<path class="st0" d="M308.7,394.8l-9.8,9.4c-0.2,0.2-0.5,0.2-0.7,0l-9.6-9.4l-8.5-8.6c-0.2-0.2-0.3-0.5-0.3-0.8
	c6.1-127.2,12.3-254.4,18.7-381.7c0-0.1,0-0.1,0.1-0.2c0.1-0.2,0.2-0.1,0.2,0.3c6.6,126.4,13.3,252.9,20,379.5
	c0.1,0.9-0.3,1.8-1,2.5L308.7,394.8z"/>
<path class="st1" d="M229.6,36.9c0.3-1.3,0.4-1.2,0.4,0.2c0,0.3,0,0.7,0.1,1c8.6,42.4,18.1,84.4,28.5,126
	c4.4,17.7,9.1,34.3,14.2,49.8c1.5,4.8,3.6,9.7,6,14.7c0.7,1.4,1,2.8,1,4.2c0,24.6,0,49.1-0.1,73.5c0,1-0.1,1-0.4,0.1
	c-12.9-44.4-23.4-89.4-31.5-135c-7.7-43.4-13.8-87.9-18.2-133.5C229.5,37.7,229.5,37.3,229.6,36.9z"/>
<path class="st1" d="M365.9,51.9c1.1-5.2,2.2-10.4,3.4-15.5c0.1-0.4,0.2-0.4,0.3-0.1c0,0.1,0,0.2,0,0.4
	c-4.7,48.2-12.1,99.5-22.2,153.8c-7.3,39.2-16.5,77.9-27.8,116c-0.2,0.7-0.3,0.7-0.3,0c-0.3-23.4-0.4-46.8-0.3-70.1
	c0-0.1,0-0.8-0.1-2.3c-0.1-1.9,0.3-3.8,1.1-5.4c1-2,1.5-3,1.6-3.1c3.8-9.4,7.1-18.9,9.9-28.6c6.5-23.1,12.4-46.3,17.8-69.7
	C355.1,102.2,360.6,77.1,365.9,51.9z"/>
<path class="st2" d="M361.9,256.1c-11.5,36.6-25.5,72.2-42,106.9c-0.7,1.4-1,1.4-0.9-0.2c0.6-14.3,1.4-28.6,2.4-43
	c0.3-3.9,0.8-7.7,1.6-11.3c1.2-5.1,2.1-8.8,2.8-11.1c4.2-14.7,8.2-29.4,12.1-44.2c0.7-2.6,1.8-5.6,3.4-8.7c1.6-3.2,2.4-4.8,2.4-4.9
	c24.5-52.4,44.6-106.4,60.2-162.1c0.3-1.1,0.5-1.3,0.7-0.7c0,0.2,0,0.3,0,0.5C394.5,137.9,380.3,197.5,361.9,256.1z"/>
<path class="st2" d="M237,256.4c-18.4-58.5-32.5-118-42.4-178.5c-0.1-0.3,0-0.6,0-0.8c0.3-0.8,0.5-0.5,0.6,0.9c0,0.4,0.1,0.7,0.2,1
	c16.1,57.2,36.9,112.3,62.2,165.2c1.9,4,3.3,7.8,4.3,11.5c3.7,14.5,6.5,25,8.4,31.5c2.2,7.4,4,14.2,5.4,20.5
	c1.1,4.6,1.7,9.6,2.1,15.1c0.8,13.4,1.5,26.8,2,40.1c0,1.1-0.2,1.2-0.7,0.2C262.5,328.6,248.5,293,237,256.4z"/>
<path class="st3" d="M255.9,316.4c5.1,12.7,11.5,29.6,19.1,50.8c0.1,0.2,0.1,0.4,0.1,0.6c-0.1,0.3-0.3,0.2-0.6-0.1
	c-26.1-36.3-49.5-74.2-70.1-113.9c-23.2-44.6-43.4-90.6-60.5-137.9c-0.2-0.5-0.1-0.4,0.2,0.1c28.2,46.2,56.6,92.3,85.1,138.4
	c2.2,3.6,4.2,7.4,5.8,11.3C242.2,282.6,249.1,299.5,255.9,316.4z"/>
<path class="st3" d="M393.1,256.1c-20.5,39.2-43.4,76.3-68.7,111.4c-0.1,0.2-0.3,0.3-0.4,0.3c-0.2,0-0.2-0.2-0.1-0.5
	c6.6-19,13.7-37.7,21.2-56.3c6.2-15.3,12.5-30.6,18.9-45.9c1.7-4.2,3.4-7.6,5.1-10.3c28.6-46.1,57.1-92.3,85.5-138.6
	c0.3-0.4,0.3-0.4,0.2,0C437.6,163.7,417,210.3,393.1,256.1z"/>
<path class="st4" d="M269.8,375c-19-19.2-36.6-39-52.5-59.5c-37.5-47.9-70.7-98.7-99.5-152.3c0,0-0.1-0.1-0.2-0.3
	c-0.1-0.1-0.1-0.2-0.1-0.4c0-0.1,0.2-0.1,0.3-0.1c0,0,0.1,0,0.1,0.1c52.8,64.4,84.6,103.4,95.3,117c3.2,4.1,8.3,12.3,15.1,24.6
	c13.2,23.7,27.2,47.2,41.8,70.6C270.8,375.7,270.7,375.8,269.8,375z"/>
<path class="st4" d="M480,162.8c0.3-0.7,0.4-0.7,0.4,0c0,0.1,0,0.2-0.1,0.3c-25.8,47.6-54.5,92.7-86.3,135.2
	c-20,26.8-42,52.5-66.1,77.2c-0.1,0.1-0.3,0.2-0.5,0.2c-0.2,0-0.3-0.1-0.1-0.4c14.2-22.4,27.7-45.3,40.5-68.5
	c4-7.3,8.4-14.4,13-21.4c3.1-4.6,7.1-9.9,12-16c28.9-35.6,57.8-71.1,87-106.5C479.9,163,480,162.9,480,162.8z"/>
<path class="st5" d="M188.4,331.1c-18.9-19.2-34.7-38.6-47.3-58.3c0-0.1-0.1-0.2-0.3-0.4c-0.1-0.1-0.2-0.3-0.2-0.4
	c0-0.3,0.2-0.3,0.4-0.1c21.3,21.4,43.7,41.5,67.3,60.3c10.4,8.3,21.6,16.3,33.5,23.9c0.4,0.3,0.8,0.7,0.9,1.1l11.8,28.1
	c0.3,0.8,0.1,0.9-0.5,0.4C230.2,369.5,208.4,351.3,188.4,331.1z"/>
<path class="st5" d="M354.5,357.2c0.2-0.5,0.6-0.9,1-1.2c14.1-9.1,27.4-18.7,39.8-29c21.1-17.4,41.3-35.8,60.8-55
	c0.2-0.2,0.4-0.3,0.6-0.2c0.1,0.1,0.1,0.3-0.2,0.6c-14.1,21.6-30.4,41.4-48.6,59.6c-19.9,19.8-41.5,37.8-64.7,53.8
	c-0.7,0.5-0.9,0.3-0.6-0.4L354.5,357.2z"/>
<path class="st6" d="M288.1,402.7l-7.1,5.1c-0.4,0.3-0.6,0.9-0.2,1.4c4,5.5,8.9,9.2,14.7,11c2,0.6,4.3,0.5,7.1-0.5
	c5.7-2,10.3-5.6,14-10.8c0.2-0.2,0.1-0.5-0.1-0.7c-2.1-1.8-4.4-3.4-6.9-4.6c-0.3-0.1-0.4-0.3-0.5-0.4c-0.1-0.3,0.1-0.5,0.6-0.6
	l24.5-0.1c0.8,0,0.9,0.2,0.2,0.7l-7.4,4.9c-0.4,0.2-0.4,0.7-0.2,1.1c0,0,0,0,0,0.1c2.7,3.5,5.9,6.4,9.5,8.6
	c6.1,3.8,12.2,3.5,18.3-0.8c0.5-0.4,1.2-0.3,1.5,0.2l3.5,4.9c0.2,0.3,0.1,0.6-0.2,0.8c-0.1,0-0.1,0.1-0.2,0.1
	c-4.6,1.2-8.5,3.5-11.8,6.9c-0.2,0.2-0.2,0.5-0.1,0.8c3.4,4.7,7.6,8.2,12.5,10.3c2.4,1,5,1.4,8,1c0.3,0,0.6,0.2,0.6,0.4
	c1.8,8.2,2.5,16.8,2,25.8c0,0.3-0.3,0.6-0.7,0.6c0,0,0,0-0.1,0c-2.6-0.5-5.1-0.5-7.4-0.1c-5.8,1-10.8,3.5-15.1,7.4
	c-0.2,0.2-0.2,0.5-0.1,0.7c2.6,3.4,5.7,6.3,9.3,8.7c3.1,2.1,6.7,3,10.9,2.7c0.2,0,0.4,0.1,0.4,0.4c0,0,0,0.1,0,0.1
	c-2,9.2-5.2,18-9.8,26.5c-0.3,0.6-0.8,1-1.4,1.2c-3.3,1.4-6.3,3.3-9.1,5.7c-0.3,0.2-0.3,0.6-0.2,0.8l2.4,3c0.3,0.4,0.4,0.9,0.1,1.2
	l-5.1,5.4c-0.4,0.4-1,0.7-1.7,0.8c-7.1,0.8-13,3.4-17.7,7.8c-0.2,0.2-0.3,0.5-0.2,0.8c0.4,0.7,1,1.4,1.8,2.1
	c0.2,0.1,0.2,0.4,0.1,0.6c0,0.1-0.1,0.1-0.2,0.1c-4.8,2.2-9.5,3.8-14.2,4.8c-0.7,0.1-0.8-0.1-0.3-0.6l3.9-4.1c0.3-0.4,0.3-1-0.1-1.3
	c0,0,0,0-0.1-0.1c-12.3-9.8-24.1-9.7-35.6,0.4c-0.2,0.2-0.2,0.5-0.1,0.7c0,0,0,0,0,0l4.4,4.6c0.3,0.3,0.2,0.4-0.2,0.3
	c-5.1-1.1-9.7-2.6-13.8-4.4c-1-0.5-1.5-0.7-1.5-0.7c-0.4-0.4-0.2-1.2,0.6-2.2c0.3-0.4,0.3-1-0.1-1.4c-4.4-3.9-9.7-6.4-15.9-7.3
	c-0.4-0.1-0.7-0.2-0.9-0.4l-5.9-6.1c-0.2-0.2-0.2-0.6,0-0.8l2.5-3.1c0.2-0.2,0.1-0.6-0.1-0.8c-2.6-2.3-5.7-4.2-9.2-5.8
	c-0.7-0.3-1.2-0.8-1.5-1.4c-4.6-8.4-7.8-17.2-9.8-26.3c0-0.2,0.1-0.4,0.3-0.4c0,0,0.1,0,0.1,0c4.4,0.2,8.3-0.9,11.9-3.4
	c3.1-2.2,5.8-4.8,8.1-7.9c0.3-0.4,0.2-0.9-0.1-1.2c-6.6-5.8-14.1-8.1-22.4-6.9c-0.3,0-0.5-0.1-0.5-0.4c0,0,0,0,0,0
	c-0.6-8.7,0-17.4,1.8-26.1c0.1-0.4,0.4-0.6,0.8-0.6c0,0,0,0,0,0c2.4,0.5,4.8,0.2,7.2-0.7c5.3-2.1,9.7-5.6,13.2-10.5
	c0.3-0.4,0.2-0.9-0.1-1.1c-3.5-2.8-7.5-5.1-11.9-6.7c-0.2-0.1-0.3-0.3-0.3-0.5c0,0,0-0.1,0.1-0.1l3.2-4.5c0.2-0.2,0.5-0.3,0.8-0.1
	c6.2,4.1,12.4,4,18.6-0.2c3.3-2.2,6.1-4.9,8.4-8.1c0.2-0.2,0.2-0.6,0-0.8c-1.9-2.1-4.1-3.6-6.5-4.6c-1.2-0.5-1.1-0.8,0.1-1.1
	c1.7-0.3,3.3-0.5,5-0.5C274,402.3,281,402.4,288.1,402.7z M264.6,437.8c3,2.5,6.4,3.9,10.2,4c3.3,0.1,6.6-0.9,9.9-3
	c3.2-2.1,6.1-4.8,8.6-8.2c0.3-0.4,0.2-0.8-0.1-1.1c-12.1-9.8-23.9-9.8-35.6,0c-0.2,0.2-0.3,0.5-0.1,0.8c1.1,1.6,2.2,2.9,3.3,4
	C262,435.6,263.2,436.7,264.6,437.8z M311.1,438.1c2.6,2.1,5.5,3.3,8.8,3.7c3,0.4,5.9-0.2,8.9-1.8c4-2.1,7.5-5.2,10.7-9.4
	c0.3-0.4,0.2-0.9-0.1-1.2c-12-9.8-23.8-9.8-35.3,0.1c-0.3,0.2-0.3,0.7-0.1,1c1.1,1.5,2.2,2.9,3.4,4
	C308.6,435.9,309.9,437,311.1,438.1z M268.4,451.1c-3.5-3.1-7.2-5.3-11-6.6c-4.6-1.5-9.1-1.5-13.6,0.1c-3.8,1.3-7.4,3.4-10.8,6.2
	c-0.3,0.3-0.4,0.8-0.1,1.1c2.6,3.6,5.4,6.4,8.5,8.5c4.9,3.4,10.1,3.8,15.5,1.3c4.5-2.1,8.3-5.3,11.6-9.8
	C268.7,451.7,268.6,451.4,268.4,451.1z M286.3,458.2c8.3,7.1,16.5,7,24.6-0.2c2.4-2.1,4.2-4.1,5.5-6c0.2-0.2,0.1-0.5-0.1-0.7
	c-2.8-2.6-5.9-4.5-9.2-5.9c-7.4-3-14.5-2.3-21.4,1.9c-1.7,1.1-3.4,2.4-5.1,3.9c-0.2,0.2-0.3,0.5-0.1,0.8
	C282.4,454.3,284.3,456.4,286.3,458.2z M332.5,458.2c7.4,6.6,15.1,7,23.1,0.9c2.7-2.1,5.1-4.5,7-7.3c0.2-0.2,0.1-0.6-0.1-0.7
	c-2.8-2.6-5.9-4.5-9.2-5.9c-6.7-2.7-13.2-2.4-19.4,1c-1.4,0.8-2.7,1.5-3.7,2.2c-1.2,0.8-2.3,1.6-3.4,2.6c-0.2,0.2-0.3,0.5-0.1,0.8
	C328.6,454.3,330.5,456.4,332.5,458.2z M309.4,482.8c3.9,3.6,8,5.4,12.5,5.3c3.3-0.1,6.6-1.2,9.8-3.5c2.8-2,5.3-4.5,7.6-7.6
	c0.3-0.4,0.2-1-0.2-1.3c-12.3-9.6-24-9.5-35.3,0.3c-0.2,0.2-0.3,0.5-0.1,0.8C304.9,478.3,306.8,480.3,309.4,482.8z M263.2,482.8
	c6.2,5.8,13,6.8,20.2,3.1c3.7-1.8,7-4.9,10-9.2c0.2-0.2,0.1-0.6-0.1-0.7c-11.9-10-23.8-10.1-35.7-0.1c-0.2,0.2-0.3,0.5-0.1,0.8
	C258.6,478.3,260.5,480.4,263.2,482.8z M269.9,499c-3.5-2.9-7.1-5.1-10.9-6.3c-4.8-1.6-9.6-1.5-14.3,0.4c-4.2,1.7-7.6,3.7-10.1,6.2
	c-0.2,0.2-0.2,0.5-0.1,0.8c3.1,4.6,7.2,8,12.2,10.3c2.9,1.3,5.2,1.7,7,1.3c7-1.8,12.5-5.6,16.4-11.4
	C270.3,499.8,270.3,499.3,269.9,499z M286.4,506.1c5.8,5.3,12.1,6.5,19,3.6c4.1-1.7,7.8-5,11-9.8c0.2-0.2,0.1-0.6-0.1-0.7
	c-2.8-2.6-6-4.6-9.6-6c-5-2.1-10-2.2-15.1-0.4c-4.4,1.5-8,3.7-10.9,6.4c-0.2,0.2-0.3,0.5-0.1,0.8
	C281.8,501.5,283.7,503.6,286.4,506.1z M332.7,507.6c2.3,1.8,4.9,3,7.7,3.5c2.6,0.5,5.3,0.2,8.1-0.9c5.2-2.1,9.3-5.5,12.5-10.3
	c0.2-0.2,0.1-0.6-0.1-0.8c-2.5-2.3-5.5-4.2-9.1-5.7c-5.1-2.2-10.2-2.5-15.2-0.8c-4.3,1.4-8,3.5-11.2,6.4c-0.3,0.2-0.3,0.6-0.1,0.9
	c1.1,1.6,2.2,2.9,3.4,4.1C330,505.4,331.4,506.5,332.7,507.6z M263.5,529.8c5,4.4,10.3,5.7,16,4.1c2.6-0.8,5.2-2.2,7.7-4.3
	c2.3-1.9,4.3-4.1,6.1-6.6c0.2-0.2,0.1-0.6-0.1-0.8c-12-9.9-23.9-9.9-35.7,0.1c-0.2,0.2-0.3,0.5-0.1,0.8
	C259.3,525.6,261.3,527.8,263.5,529.8z M312.3,531.5c4.2,3,8.8,3.8,13.6,2.4c2.6-0.7,5.1-2.1,7.7-4.3c2.2-1.9,4.3-4,6.1-6.4
	c0.2-0.2,0.1-0.5-0.1-0.7c-3.3-2.9-6.9-5-10.6-6.4c-4.6-1.7-9.1-1.7-13.8-0.2c-4.3,1.4-8.1,3.5-11.4,6.5c-0.2,0.2-0.2,0.5-0.1,0.7
	c1.2,1.7,2.5,3.3,3.9,4.6C309.2,529.1,310.8,530.4,312.3,531.5z"/>
<path class="st7" d="M211.9,589.2c2.8-8.1,5.9-16.1,9.3-23.9c0.1-0.3,0.4-0.5,0.7-0.6c1.6-0.5,3.4-0.6,5.4-0.3
	c0.3,0,0.6,0.4,0.5,0.7c0,0.1,0,0.1,0,0.1l-13.2,31.9c-0.1,0.3-0.4,0.5-0.7,0.5l-4.3,0c-0.5,0-1.1-0.4-1.3-0.9
	c-4.5-10.7-8.8-21.2-12.9-31.5c-0.4-0.9,0-1.3,1.1-1.1c0.5,0.1,0.9,0.1,1.3,0c1.3-0.2,2.4,0,3.4,0.6c0.7,0.4,1.2,1.3,1.7,2.6
	c2.8,7.4,5.7,14.7,8.8,21.9C211.6,589.5,211.7,589.5,211.9,589.2z"/>
<path class="st7" d="M254.7,597.8h-20.9l-0.2-33c0-0.3,0.2-0.5,0.5-0.5l20.3-0.1c0.3,0,0.6,0.2,0.6,0.5l0,3.9c0,0.3-0.2,0.5-0.5,0.5
	c0,0,0,0,0,0l-13.5,0.1c-0.5,0-0.9,0.4-0.9,1l-0.1,7.4c0,0.5,0.4,0.9,0.8,0.9c0,0,0,0,0,0l10.4,0c0.3,0,0.6,0.2,0.6,0.5l0,3.8
	c0,0.3-0.3,0.5-0.6,0.5h-10.6c-0.3,0-0.5,0.2-0.6,0.5c-0.3,2.8-0.3,5.6,0.1,8.5c0,0.3,0.3,0.5,0.6,0.5l13.4-0.1
	c0.5,0,0.8,0.3,0.9,0.8C255.1,595.2,255,596.7,254.7,597.8z"/>
<path class="st7" d="M346.9,598h-4.8c-8-1.2-12.9-5.6-14.6-13.1c-1.1-4.5-0.5-8.7,1.6-12.4c1.9-3.5,4.9-5.9,8.9-7.4
	c6.1-2.3,12.3-1.5,18.5,2.4c0.3,0.2,0.4,0.6,0.3,0.9c-1.3,3.4-3.1,4.2-5.5,2.4c-1.4-1-3.4-1.6-6.2-1.7c-4.9-0.2-8.3,1.8-10.2,5.9
	c-1.2,2.5-1.6,5.2-1.2,7.9c0.4,2.8,1.5,5,3.3,6.9c3,3.1,7.2,3.9,12.4,2.5c1.4-0.4,2.1-1.2,2.1-2.4c0-1.4,0-2.1,0-2.3
	c0.1-2-1-2.7-3.5-2.2c-1.9,0.4-2.5-0.9-1.9-3.9c0.1-0.3,0.3-0.5,0.6-0.5l9.6,0c0.3,0,0.5,0.2,0.5,0.5v12.6c0,0.3-0.2,0.6-0.5,0.8
	C353.7,596.7,350.5,597.7,346.9,598z"/>
<path class="st7" d="M145.2,564.2h5.6c0.2,0,0.4,0.2,0.4,0.4v32.6c0,0.2-0.2,0.4-0.4,0.4h-5.6c-0.2,0-0.4-0.2-0.4-0.4v-32.6
	C144.8,564.4,144.9,564.2,145.2,564.2z"/>
<path class="st7" d="M183.7,586.4l0.1-21.6c0-0.3,0.2-0.5,0.6-0.5h4.5c0.4,0,0.7,0.3,0.7,0.7l-0.1,32c0,0.3-0.2,0.6-0.5,0.7
	c-1.1,0.3-2.1,0.3-3.1,0c-0.8-0.2-1.6-0.8-2.4-1.7c-5.6-6.7-11.1-13.5-16.4-20.5c-0.5-0.7-0.8-0.6-0.8,0.3V597
	c0,0.4-0.3,0.6-0.6,0.6c0,0,0,0,0,0l-4.4,0c-0.3,0-0.5-0.3-0.5-0.6l0,0l-0.1-32c0-0.3,0.2-0.5,0.5-0.6c1.2-0.2,2.3-0.2,3.2,0
	c0.9,0.2,1.7,0.7,2.4,1.7c5.4,6.9,10.9,13.7,16.5,20.5C183.6,586.8,183.7,586.8,183.7,586.4z"/>
<path class="st7" d="M283.2,597.8c-1-0.3-2-1.2-3.1-2.7c-2.1-3.1-4.2-6.1-6.2-9.2c-0.6-0.9-1.5-1.3-2.7-1.2c-0.3,0-0.6,0-1,0
	c-1.1-0.2-1.5,0.4-1.3,1.9c0.3,1.7,0.2,5.3-0.3,10.7c0,0.3-0.3,0.5-0.5,0.5l-4.9,0.1c-0.2,0-0.3,0-0.4-0.1c-0.2-0.1-0.3-0.3-0.3-0.6
	l-0.1-32c0-0.4,0.3-0.7,0.7-0.7c4.1-0.2,8.1-0.1,11.8,0.1c3.1,0.2,5.4,0.8,6.8,1.6c1.5,0.9,2.6,2.2,3.4,3.8c0.7,1.5,1,3.1,0.8,4.8
	c-0.4,4-2.6,6.7-6.5,8.3c-0.2,0.1-0.3,0.3-0.2,0.5c0,0,0,0.1,0,0.1l9.4,13.2c0.4,0.6,0.3,0.9-0.5,0.9L283.2,597.8z M269.4,580.1
	c1.6-0.1,3.2-0.1,4.8-0.1c1.2,0,2.4-0.4,3.4-1.3c0.9-0.8,1.5-1.7,1.9-3c0.9-3.2-0.5-5.4-4.1-6.5c-1.1-0.3-3-0.4-5.9-0.3
	c-0.3,0-0.5,0.2-0.5,0.5l-0.1,10C268.9,579.8,269.1,580.1,269.4,580.1C269.4,580.1,269.4,580.1,269.4,580.1z"/>
<path class="st7" d="M301.1,590l-2.2,6c-0.4,1.1-1.2,1.7-2.3,1.7l-4.2,0c-0.3,0-0.5-0.2-0.5-0.5c0-0.1,0-0.1,0-0.2l12.8-31.9
	c0.2-0.5,0.8-0.9,1.4-0.9h5c0.3,0,0.6,0.2,0.8,0.5l12.9,32.3c0.1,0.2,0,0.4-0.2,0.5c0,0-0.1,0-0.1,0c-2.3,0.3-4.1,0.2-5.6-0.4
	c-0.3-0.1-0.5-0.4-0.6-0.7l-2.6-6.3c-0.1-0.3-0.4-0.5-0.7-0.5l-13-0.1C301.5,589.5,301.2,589.7,301.1,590z M308.3,571l-5,13.2
	c-0.1,0.3,0,0.6,0.3,0.7c0.1,0,0.1,0,0.2,0h9.4c0.2,0,0.4-0.2,0.4-0.4c0,0,0-0.1,0-0.1l-4.9-13.5C308.5,570.6,308.4,570.6,308.3,571
	z"/>
<path class="st7" d="M384.9,589.5l-13.1,0c-0.4,0-0.7,0.2-0.8,0.6c-0.6,1.6-1.1,3.3-1.7,4.9c-0.4,1-0.8,1.7-1.3,2.1
	c-0.7,0.6-1.6,0.8-2.6,0.8c-0.5,0-1.1,0-1.9,0c-1.3,0-1.6-0.7-1.1-2.1c4-10.2,8.2-20.5,12.4-30.9c0.1-0.4,0.5-0.6,0.8-0.6l5.4,0
	c0.3,0,0.6,0.2,0.7,0.5l12.9,32.4c0.1,0.2,0,0.5-0.2,0.5c-0.1,0-0.1,0-0.2,0l-5-0.2c-0.5,0-1-0.4-1.3-1l-2.6-6.5
	C385.5,589.7,385.2,589.6,384.9,589.5z M378.3,571l-5,13.2c-0.1,0.3,0,0.6,0.3,0.7c0.1,0,0.1,0,0.2,0l9.4-0.2c0.2,0,0.4-0.2,0.3-0.4
	c0,0,0-0.1,0-0.1l-4.9-13.2C378.5,570.6,378.4,570.6,378.3,571z"/>
<path class="st7" d="M409.3,589.2c0,1,0.2,1,0.6,0.1l9.5-24.2c0.2-0.5,0.8-0.9,1.4-0.9h5.1c0.2,0,0.4,0.2,0.4,0.4c0,0.1,0,0.1,0,0.2
	c-4.6,10.7-8.9,21.2-13,31.6c-0.5,1.2-1.5,1.7-3,1.4c-0.3-0.1-0.7-0.1-1,0c-1.5,0.3-2.5-0.1-3-1.2c-4.2-10.5-8.6-21.1-13-32
	c-0.1-0.2,0-0.4,0.2-0.5c0,0,0.1,0,0.1,0h4.3c1.3,0,2.1,0.6,2.6,1.8c2.8,7.1,5.5,13.9,8.1,20.6C409,587.7,409.3,588.6,409.3,589.2z"
	/>
<path class="st7" d="M438.8,592.7l13.7-0.2c0.4,0,0.7,0.3,0.7,0.6c0,0,0,0,0,0l0,4c0,0.3-0.2,0.5-0.5,0.5l-20.3,0.1
	c-0.4,0-0.7-0.3-0.7-0.7v-32.3c0-0.3,0.2-0.5,0.5-0.5h20.5c0.3,0,0.5,0.2,0.5,0.5l0,0v3.4c0,0.6-0.5,1.1-1.1,1.1l0,0h-13.3
	c-0.3,0-0.6,0.2-0.6,0.5l-0.3,8c0,0.4,0.4,0.7,0.8,0.8c0,0,0,0,0,0l10.6,0c0.3,0,0.5,0.2,0.5,0.5c0,0,0,0,0,0l-0.1,3.5
	c0,0.3-0.3,0.5-0.6,0.5l-10.3,0.2c-0.3,0-0.6,0.2-0.6,0.5c-0.6,2.8-0.6,5.6-0.2,8.5C438.3,592.5,438.5,592.7,438.8,592.7z"/>
</svg>
