<?xml version="1.0" standalone="no"?>
<!DOCTYPE svg PUBLIC "-//W3C//DTD SVG 20010904//EN"
 "http://www.w3.org/TR/2001/REC-SVG-20010904/DTD/svg10.dtd">
<svg version="1.0" xmlns="http://www.w3.org/2000/svg"
 width="700.000000pt" height="700.000000pt" viewBox="0 0 700.000000 700.000000"
 preserveAspectRatio="xMidYMid meet">
<metadata>
Created by potrace 1.14, written by Peter Selinger 2001-2017
</metadata>
<g transform="translate(0.000000,700.000000) scale(0.100000,-0.100000)"
fill="#000000" stroke="none">
<path d="M3529 6778 c-1 -40 -2 -89 -4 -108 -1 -19 -5 -107 -10 -195 -4 -88
-9 -180 -10 -205 -2 -25 -6 -112 -10 -195 -3 -82 -8 -179 -10 -215 -2 -36 -7
-128 -10 -205 -4 -77 -8 -165 -10 -195 -2 -31 -6 -118 -10 -195 -4 -77 -8
-169 -10 -205 -2 -36 -6 -126 -9 -200 -4 -74 -8 -169 -11 -210 -2 -41 -7 -131
-10 -200 -3 -69 -8 -159 -10 -200 -2 -41 -7 -131 -10 -200 -3 -69 -8 -161 -10
-205 -2 -44 -7 -136 -10 -205 -3 -69 -7 -165 -10 -215 -2 -49 -7 -142 -10
-205 -3 -63 -7 -153 -10 -200 -2 -47 -7 -143 -10 -215 -3 -71 -8 -161 -10
-200 -3 -38 -7 -126 -10 -195 -5 -130 -11 -257 -20 -420 -3 -52 -7 -147 -10
-210 -3 -63 -8 -153 -10 -200 -4 -85 -11 -220 -21 -420 -2 -58 -6 -143 -9
-190 -2 -47 -7 -141 -10 -210 -3 -69 -8 -165 -10 -215 l-5 -89 153 -153 c83
-84 157 -153 162 -153 13 0 308 288 328 320 8 14 14 36 12 50 -1 14 -6 93 -10
175 -3 83 -8 173 -10 200 -2 28 -7 109 -10 180 -7 154 -11 237 -19 371 -3 54
-8 151 -11 214 -3 63 -7 147 -10 185 -3 39 -7 124 -10 190 -3 66 -7 154 -10
195 -2 41 -7 125 -10 185 -3 61 -8 148 -10 195 -3 47 -7 128 -10 180 -8 163
-15 302 -20 385 -3 44 -7 132 -10 195 -11 206 -14 263 -20 385 -4 66 -8 152
-10 190 -2 39 -7 120 -10 180 -3 61 -8 148 -10 195 -12 219 -16 302 -20 390
-3 52 -7 136 -10 185 -3 50 -7 137 -10 195 -3 58 -7 141 -10 185 -3 44 -7 132
-10 195 -3 63 -8 147 -10 185 -2 39 -7 124 -10 190 -3 66 -8 147 -10 180 -2
33 -7 123 -10 200 -4 77 -8 163 -10 190 -6 96 -19 350 -19 393 -1 73 -16 46
-17 -30z"/>
<path d="M4722 6310 c0 -14 2 -19 5 -12 2 6 2 18 0 25 -3 6 -5 1 -5 -13z"/>
<path d="M2378 6315 c-3 -3 -2 -27 2 -53 4 -26 11 -85 14 -132 4 -47 9 -94 11
-105 3 -11 7 -45 10 -75 3 -30 7 -73 10 -95 3 -22 7 -60 10 -85 7 -67 36 -312
40 -335 1 -11 6 -47 9 -80 4 -33 9 -69 11 -80 2 -11 7 -47 11 -80 3 -33 7 -62
9 -65 2 -3 6 -34 10 -70 3 -36 8 -72 10 -80 3 -8 7 -35 10 -59 5 -43 11 -83
20 -131 2 -14 7 -45 10 -70 3 -25 17 -110 30 -190 13 -80 26 -161 29 -180 3
-19 12 -75 21 -125 9 -49 18 -103 21 -120 5 -34 22 -130 28 -160 2 -11 13 -69
24 -130 30 -158 30 -155 42 -215 6 -30 13 -66 16 -80 11 -61 51 -245 106 -485
33 -143 61 -269 64 -280 2 -11 20 -83 39 -160 20 -77 38 -147 40 -155 3 -15
29 -113 79 -300 14 -52 43 -156 65 -230 l40 -135 1 565 c2 788 6 706 -45 825
-63 147 -115 306 -210 645 -42 149 -178 689 -234 930 -50 212 -61 259 -81 345
-12 50 -24 101 -26 115 -3 14 -21 94 -40 178 -18 84 -36 163 -38 175 -2 12
-14 65 -26 117 -12 52 -25 115 -30 140 -5 25 -18 88 -30 140 -31 146 -61 291
-67 330 -6 39 -7 42 -15 35z"/>
<path d="M4709 6268 c-3 -32 -11 -68 -64 -308 -30 -140 -76 -347 -100 -460
-24 -113 -67 -306 -95 -430 -29 -124 -54 -236 -56 -250 -3 -14 -39 -162 -80
-330 -180 -736 -320 -1207 -411 -1380 -17 -33 -18 -75 -18 -677 0 -354 2 -639
6 -635 5 6 32 94 34 112 0 3 9 30 18 60 43 138 235 891 271 1070 3 14 19 88
36 165 36 170 30 142 73 360 43 217 46 230 53 275 2 19 9 58 15 86 5 28 12 64
15 80 2 16 7 40 9 54 10 47 62 356 70 415 3 22 8 51 11 65 8 41 12 66 45 285
11 72 22 146 25 165 2 19 18 130 34 245 16 116 32 233 35 260 3 28 8 61 10 75
2 14 7 50 10 80 3 30 8 66 10 80 3 14 7 56 11 95 3 38 7 76 9 85 2 8 6 44 10
80 3 36 8 76 10 90 2 14 7 59 10 100 4 41 9 78 11 82 2 4 0 9 -6 13 -5 3 -11
0 -11 -7z"/>
<path d="M5267 5503 c-214 -744 -540 -1639 -824 -2263 -14 -30 -44 -98 -68
-150 -24 -52 -67 -147 -98 -210 -30 -63 -63 -144 -75 -180 -18 -57 -78 -279
-87 -320 -2 -8 -24 -89 -50 -180 -61 -215 -123 -459 -130 -513 -3 -23 -7 -58
-10 -77 -3 -19 -7 -78 -10 -130 -3 -52 -7 -129 -10 -170 -2 -41 -7 -122 -10
-180 -3 -58 -8 -150 -11 -205 -6 -123 -4 -120 91 86 379 817 676 1686 965
2824 38 149 71 281 74 295 3 14 10 45 17 70 6 25 13 56 15 70 3 14 9 41 14 60
9 33 83 375 94 430 2 14 16 81 30 150 27 137 33 166 41 208 3 15 10 50 15 77
27 136 80 458 77 462 -2 2 -24 -68 -50 -154z"/>
<path d="M1794 5610 c3 -25 14 -97 26 -160 11 -63 25 -142 31 -175 5 -33 12
-72 14 -86 3 -14 18 -93 34 -175 17 -82 32 -160 35 -174 31 -171 170 -779 242
-1060 290 -1127 619 -2076 982 -2830 l61 -125 -5 130 c-10 286 -30 625 -39
685 -12 77 -18 104 -40 198 -23 95 -102 386 -124 457 -6 17 -31 112 -56 213
-49 195 -78 274 -173 472 -208 437 -466 1068 -632 1545 -23 66 -45 129 -50
140 -24 56 -247 760 -266 840 -2 11 -13 49 -24 85 -19 61 -20 62 -16 20z"/>
<path d="M5915 4593 c-131 -214 -292 -476 -358 -583 -66 -107 -130 -211 -142
-230 -13 -19 -63 -100 -112 -180 -50 -80 -203 -329 -342 -553 -139 -224 -266
-435 -282 -468 -32 -63 -39 -82 -253 -604 -70 -170 -131 -319 -136 -330 -21
-44 -143 -366 -225 -591 -47 -132 -90 -250 -96 -262 -18 -45 9 -18 70 68 256
364 565 846 786 1230 191 331 526 977 672 1295 23 50 57 124 76 165 78 169
103 225 199 450 94 219 261 634 306 760 11 30 34 92 51 138 17 45 29 82 27 82
-2 0 -110 -174 -241 -387z"/>
<path d="M950 4967 c0 -14 217 -583 265 -692 7 -16 54 -129 105 -250 102 -243
119 -281 235 -530 25 -55 65 -140 88 -190 48 -105 321 -648 392 -780 273 -511
667 -1151 984 -1600 39 -55 76 -108 83 -118 7 -11 19 -26 26 -35 11 -15 12
-14 7 8 -12 44 -161 448 -243 660 -221 564 -433 1068 -496 1182 -29 51 -287
473 -573 938 -286 465 -593 964 -683 1110 -173 282 -190 309 -190 297z"/>
<path d="M500 4201 c0 -11 232 -430 261 -473 11 -14 19 -28 19 -31 0 -6 226
-383 310 -517 473 -757 1074 -1571 1549 -2100 217 -242 444 -473 407 -415 -15
22 -29 47 -33 55 -3 8 -14 26 -23 40 -18 25 -228 369 -260 425 -10 17 -48 82
-85 145 -64 109 -232 402 -287 500 -118 209 -183 314 -259 415 -67 90 -782
972 -891 1100 -20 24 -494 603 -620 758 -48 60 -88 104 -88 98z"/>
<path d="M6553 4163 c-21 -27 -40 -50 -43 -53 -3 -3 -34 -41 -70 -85 -36 -44
-73 -89 -82 -100 -9 -11 -74 -90 -144 -175 -69 -85 -141 -173 -159 -195 -64
-77 -181 -221 -266 -325 -213 -262 -502 -617 -517 -635 -78 -91 -270 -338
-324 -415 -85 -123 -142 -218 -345 -573 -229 -402 -514 -879 -565 -946 -10
-13 -16 -26 -14 -29 13 -12 477 496 698 763 9 11 44 54 79 95 314 378 776
1025 1126 1575 106 167 355 577 410 675 261 464 264 470 259 470 -3 0 -22 -21
-43 -47z"/>
<path d="M968 2243 c152 -223 274 -378 491 -624 92 -104 460 -471 560 -559 41
-36 79 -70 85 -75 142 -131 706 -559 695 -528 -2 6 -49 119 -103 251 l-100
240 -80 53 c-424 278 -973 735 -1479 1229 -76 74 -142 136 -147 138 -6 2 30
-54 78 -125z"/>
<path d="M6060 2247 c-119 -116 -307 -292 -414 -388 -28 -24 -57 -51 -66 -59
-9 -8 -45 -40 -80 -70 -35 -30 -68 -60 -74 -65 -6 -6 -54 -46 -106 -90 -52
-44 -97 -82 -100 -85 -9 -10 -241 -194 -330 -260 -46 -35 -156 -113 -244 -172
-130 -88 -163 -115 -177 -146 -9 -20 -40 -93 -69 -162 -28 -69 -58 -138 -65
-155 -37 -82 -55 -128 -55 -137 0 -11 57 27 230 156 115 86 385 298 400 315 3
3 39 35 80 71 121 104 184 164 375 355 249 249 342 351 521 580 133 169 310
422 302 430 -2 2 -59 -51 -128 -118z"/>
</g>
</svg>
